<svg width="24" height="24" viewBox="0 0 24 24" xmlns="http://www.w3.org/2000/svg">
<path d="M5.5 10.9502H14V18.9502H6C5.86739 18.9502 5.74021 18.8975 5.64645 18.8037C5.55268 18.71 5.5 18.5828 5.5 18.4502V10.9502ZM15.5 10.9502H18.5V18.4502C18.5 18.5828 18.4473 18.71 18.3536 18.8037C18.2598 18.8975 18.1326 18.9502 18 18.9502H15.5V10.9502ZM18 4.4502H6C5.46957 4.4502 4.96086 4.66091 4.58579 5.03598C4.21071 5.41105 4 5.91976 4 6.4502V18.4502C4 18.9806 4.21071 19.4893 4.58579 19.8644C4.96086 20.2395 5.46957 20.4502 6 20.4502H18C18.5304 20.4502 19.0391 20.2395 19.4142 19.8644C19.7893 19.4893 20 18.9806 20 18.4502V6.4502C20 5.91976 19.7893 5.41105 19.4142 5.03598C19.0391 4.66091 18.5304 4.4502 18 4.4502Z"/>
</svg>
